<svg xmlns="http://www.w3.org/2000/svg" width="32" height="32" viewBox="0 0 32 32">
  <defs>
    <linearGradient id="orbitGradient" x1="0%" y1="0%" x2="100%" y2="100%">
      <stop offset="0%" style="stop-color:#4F46E5;stop-opacity:1" />
      <stop offset="100%" style="stop-color:#7C3AED;stop-opacity:1" />
    </linearGradient>
    <linearGradient id="storageGradient" x1="0%" y1="0%" x2="100%" y2="100%">
      <stop offset="0%" style="stop-color:#06B6D4;stop-opacity:1" />
      <stop offset="100%" style="stop-color:#0891B2;stop-opacity:1" />
    </linearGradient>
  </defs>
  
  <!-- Background circle -->
  <circle cx="16" cy="16" r="15" fill="#1F2937" stroke="#374151" stroke-width="1"/>
  
  <!-- Central storage node -->
  <circle cx="16" cy="16" r="4" fill="url(#storageGradient)"/>
  
  <!-- Orbital rings -->
  <ellipse cx="16" cy="16" rx="10" ry="6" fill="none" stroke="url(#orbitGradient)" stroke-width="1.5" opacity="0.8"/>
  <ellipse cx="16" cy="16" rx="6" ry="10" fill="none" stroke="url(#orbitGradient)" stroke-width="1.5" opacity="0.8"/>
  
  <!-- Data nodes on orbits -->
  <circle cx="26" cy="16" r="1.5" fill="url(#orbitGradient)"/>
  <circle cx="6" cy="16" r="1.5" fill="url(#orbitGradient)"/>
  <circle cx="16" cy="6" r="1.5" fill="url(#orbitGradient)"/>
  <circle cx="16" cy="26" r="1.5" fill="url(#orbitGradient)"/>
  
  <!-- Storage cloud elements -->
  <path d="M12 12 Q10 10 8 12 Q6 14 8 16 Q10 18 12 16 Q14 14 12 12" fill="url(#storageGradient)" opacity="0.6"/>
  <path d="M20 20 Q22 18 24 20 Q26 22 24 24 Q22 26 20 24 Q18 22 20 20" fill="url(#storageGradient)" opacity="0.6"/>
</svg>